<svg xmlns="http://www.w3.org/2000/svg" xmlns:xlink="http://www.w3.org/1999/xlink" width="1280" zoomAndPan="magnify" viewBox="0 0 960 540.000001" height="720" preserveAspectRatio="xMidYMid meet" version="1.0"><defs><clipPath id="fca6521822"><path d="M 417.421875 224.445312 L 542.441406 224.445312 L 542.441406 314.277344 L 417.421875 314.277344 Z M 417.421875 224.445312 " clip-rule="nonzero"/></clipPath></defs><g clip-path="url(#fca6521822)"><path fill="#1e4084" d="M 417.421875 285.699219 C 417.675781 261.140625 438.605469 232.667969 461.695312 224.523438 C 462.765625 224.492188 465.03125 224.277344 463.804688 225.210938 C 456.128906 231.402344 448.183594 243.257812 448.660156 253.46875 C 448.75 254.5625 448.839844 255.875 449.8125 256.5625 C 450.660156 257.175781 452.03125 257.21875 453.140625 257.527344 C 464.539062 260.207031 473.582031 269.933594 475.160156 281.601562 C 478.550781 304.476562 453.371094 322.058594 433.046875 311.234375 C 423.667969 306.40625 417.398438 296.382812 417.421875 285.753906 Z M 484.523438 285.699219 C 484.777344 261.140625 505.707031 232.667969 528.796875 224.523438 C 529.867188 224.492188 532.132812 224.277344 530.90625 225.210938 C 523.230469 231.402344 515.285156 243.257812 515.761719 253.46875 C 515.851562 254.5625 515.941406 255.875 516.914062 256.5625 C 517.761719 257.175781 519.132812 257.21875 520.242188 257.527344 C 531.640625 260.207031 540.683594 269.933594 542.261719 281.601562 C 545.652344 304.476562 520.472656 322.058594 500.148438 311.234375 C 490.773438 306.402344 484.5 296.378906 484.527344 285.753906 L 484.527344 285.699219 Z M 484.523438 285.699219 " fill-opacity="1" fill-rule="nonzero"/></g></svg>